<svg viewBox="0 0 100 100" xmlns="http://www.w3.org/2000/svg" xmlns:xlink="http://www.w3.org/1999/xlink" aria-hidden="true" role="img" class="iconify iconify--gis" preserveAspectRatio="xMidYMid meet" width="30px" height="30px"><path d="M50.001 0C33.65 0 20.25 13.36 20.25 29.666c0 6.318 2.018 12.19 5.433 17.016L46.37 82.445c2.897 3.785 4.823 3.066 7.232-.2l22.818-38.83c.46-.834.822-1.722 1.137-2.629a29.28 29.28 0 0 0 2.192-11.12C79.75 13.36 66.354 0 50.001 0zm0 13.9c8.806 0 15.808 6.986 15.808 15.766c0 8.78-7.002 15.763-15.808 15.763c-8.805 0-15.81-6.982-15.81-15.763c0-8.78 7.005-15.765 15.81-15.765z" fill="#FFCCCC"/><path d="M68.913 48.908l-.048.126c.015-.038.027-.077.042-.115l.006-.011z" fill="#FFCCCC"/></svg>